<?xml version="1.0" encoding="UTF-8"?>
<!DOCTYPE svg PUBLIC "-//W3C//DTD SVG 1.1//EN" "http://www.w3.org/Graphics/SVG/1.1/DTD/svg11.dtd">
<svg version="1.1" xmlns="http://www.w3.org/2000/svg" xmlns:xlink="http://www.w3.org/1999/xlink" x="0" y="0" width="400" height="400" viewBox="0, 0, 400, 400">
  <g id="Layer_1">
    <g>
      <path d="M282.038,127.73 C270.99,129.159 243.371,134.397 243.943,134.968 C244.133,135.159 249.848,134.492 256.609,133.635 C273.943,131.349 300.228,132.111 309.562,135.064 C321.562,138.873 328.514,146.207 328.514,154.873 C328.419,159.921 324.609,169.064 319.943,175.159 C316.133,180.111 316.133,180.207 314.038,178.302 C312.895,177.254 310.324,175.921 308.324,175.254 C304.324,174.016 289.467,173.73 284.8,174.778 C272.514,177.73 265.276,187.921 265.086,202.206 C264.99,214.968 270.133,224.873 279.276,229.349 C283.371,231.349 285.562,231.635 295.181,231.635 C306.133,231.73 306.324,231.635 314.133,227.73 L322.038,223.73 L322.324,211.445 L322.609,199.159 L313.086,199.159 C307.847,199.159 303.371,198.778 303.086,198.302 C302.133,196.778 311.752,191.445 316.8,190.683 C321.371,190.016 322.609,188.683 320.514,186.587 C319.847,185.921 321.562,183.826 326.038,180.302 C341.086,168.111 350.514,154.683 350.514,145.54 C350.514,131.921 337.657,126.111 308.133,126.302 C299.276,126.397 287.562,126.968 282.038,127.73 z M301.562,188.873 L304.705,191.54 L302.324,193.445 C294.8,199.54 284.228,207.159 283.276,207.159 C281.467,207.159 283.086,194.302 285.276,191.349 C289.467,185.635 296.419,184.587 301.562,188.873 z M295.562,207.159 L295.562,211.159 L300.99,211.159 C306.228,211.159 306.514,211.349 306.514,213.73 C306.514,215.73 305.752,216.683 303.086,217.73 C298.895,219.445 292.514,219.635 289.181,218.111 C286.895,217.064 283.562,212.492 283.562,210.302 C283.562,209.349 293.181,203.254 294.8,203.254 C295.181,203.254 295.562,204.968 295.562,207.159 z" fill="#000000"/>
      <path d="M240.324,135.921 C241.086,136.207 241.943,136.111 242.228,135.826 C242.609,135.445 241.943,135.254 240.895,135.254 C239.752,135.349 239.562,135.54 240.324,135.921 z" fill="#000000"/>
      <path d="M48.324,194.778 C48.038,215.064 47.943,215.445 45.657,217.254 C44.324,218.302 42.895,219.159 42.419,219.159 C40.514,219.159 37.562,215.064 37.562,212.587 L37.562,209.921 L29.848,210.587 C25.562,210.968 21.753,211.54 21.276,211.826 C18.705,213.445 22.61,223.445 27.372,227.445 C32.8,232.016 43.181,233.54 52.038,231.064 C57.086,229.635 62.991,223.826 64.419,218.683 C64.991,216.397 65.467,206.111 65.467,194.492 L65.562,174.207 L57.086,174.207 L48.705,174.207 L48.324,194.778 z" fill="#000000"/>
      <path d="M109.181,175.635 C99.943,178.968 96.419,187.254 99.943,197.73 C100.514,199.445 99.657,200.492 95.371,203.54 L90.038,207.254 L89.752,201.254 L89.371,195.159 L81.467,195.159 L73.562,195.159 L73.562,201.159 L73.562,207.159 L81.276,207.254 L88.991,207.254 L86.514,209.254 C85.181,210.397 80.038,214.587 75.086,218.492 C64.991,226.683 54.61,238.206 51.372,245.064 C48.514,250.873 48.324,258.587 50.991,262.492 C53.372,266.206 59.562,269.635 67.562,271.825 C77.181,274.492 104.324,274.302 122.99,271.349 C137.943,268.968 157.467,264.873 149.276,265.825 C132.419,267.73 125.848,268.206 116.991,268.206 C87.276,268.206 70.895,259.73 71.276,244.683 C71.371,238.302 73.276,233.73 78.895,225.826 C83.086,219.921 93.943,208.683 99.848,204.111 L102.705,201.921 L106.991,203.921 C109.276,205.064 114.895,207.064 119.371,208.206 C125.371,209.826 128.038,211.064 129.181,212.778 C132.99,218.683 122.705,223.635 116.61,218.778 C115.848,218.206 114.61,216.206 113.752,214.302 L112.419,210.968 L106.324,211.54 C102.991,211.921 99.371,212.206 98.229,212.206 C96.514,212.206 96.324,212.683 96.8,215.826 C97.657,221.159 101.848,226.873 106.705,229.349 C112.514,232.302 125.181,233.064 132.705,230.873 C147.181,226.683 152.133,210.397 141.848,200.778 C139.276,198.397 129.371,194.778 120.038,192.683 L116.991,192.016 L120.038,189.54 L122.99,187.064 L119.848,188.587 C115.848,190.587 114.514,190.587 114.514,188.683 C114.514,186.397 118.895,184.016 121.943,184.778 C123.371,185.159 124.229,185.826 123.943,186.302 C123.657,186.778 124.133,186.873 124.895,186.587 C125.943,186.207 126.895,186.873 127.657,188.587 C128.8,191.064 129.181,191.159 136.61,191.159 C140.895,191.159 144.61,190.873 144.895,190.397 C146.038,188.587 143.371,182.492 140.229,179.54 C138.514,177.826 135.467,175.921 133.657,175.349 C128.99,173.826 113.848,174.016 109.181,175.635 z" fill="#000000"/>
      <path d="M152.324,175.159 C152.133,175.73 152.133,179.064 152.324,182.683 L152.705,189.159 L161.086,189.159 L169.562,189.159 L169.562,210.206 L169.562,231.159 L178.514,231.159 L187.562,231.159 L187.562,210.206 L187.562,189.159 L196.038,189.159 C204.133,189.159 204.514,189.064 204.609,186.968 C204.705,185.73 204.895,183.349 205.086,181.73 C205.371,180.016 205.276,177.73 204.99,176.492 C204.514,174.302 204.419,174.302 178.609,174.207 C162.038,174.207 152.61,174.492 152.324,175.159 z" fill="#000000"/>
      <path d="M222.8,175.445 C221.943,176.492 215.657,192.968 204.419,223.54 L201.467,231.254 L210.705,230.968 L219.848,230.683 L220.99,226.683 L222.038,222.683 L231.943,222.683 L241.848,222.683 L243.276,226.968 L244.705,231.159 L253.562,231.159 C258.514,231.159 262.514,230.778 262.514,230.397 C262.514,228.492 260.228,223.159 259.467,223.159 C258.99,223.159 258.8,222.683 258.99,221.921 C259.181,221.254 255.467,210.397 250.705,197.73 L242.038,174.683 L232.895,174.397 C226.419,174.207 223.562,174.492 222.8,175.445 z M237.467,208.492 C237.467,208.873 234.99,209.159 231.943,209.159 C226.99,209.159 226.324,208.968 226.8,207.445 C227.086,206.492 228.324,202.206 229.657,197.826 L231.943,189.921 L234.705,198.873 C236.228,203.73 237.467,208.016 237.467,208.492 z" fill="#000000"/>
      <path d="M333.181,174.873 C332.8,175.254 332.514,188.111 332.514,203.349 L332.514,231.159 L356.038,231.159 L379.562,231.159 L379.562,224.683 L379.562,218.206 L364.99,218.206 L350.514,218.206 L350.514,212.683 L350.514,207.159 L363.562,207.159 L376.514,207.159 L376.514,201.159 L376.514,195.159 L363.562,195.159 L350.514,195.159 L350.514,191.254 L350.514,187.254 L364.8,186.968 L378.99,186.683 L378.99,180.683 L378.99,174.683 L356.419,174.397 C344.038,174.302 333.562,174.492 333.181,174.873 z" fill="#000000"/>
      <path d="M155.371,264.873 C156.038,265.159 156.895,265.159 157.276,264.778 C157.562,264.492 156.99,264.206 155.943,264.302 C154.8,264.302 154.514,264.587 155.371,264.873 z" fill="#000000"/>
    </g>
  </g>
</svg>
