<?xml version="1.0" standalone="no"?>
<!DOCTYPE svg PUBLIC "-//W3C//DTD SVG 20010904//EN"
 "http://www.w3.org/TR/2001/REC-SVG-20010904/DTD/svg10.dtd">
<svg version="1.0" xmlns="http://www.w3.org/2000/svg"
 width="50.000000pt" height="55.000000pt" viewBox="0 0 50.000000 55.000000"
 preserveAspectRatio="xMidYMid meet">
<metadata>
Created by Potrace Professional 1.1m
</metadata>
<g transform="translate(0.000000,55.000000) rotate(-360.00) scale(0.095238,-0.095238)"
fill="#000000" stroke="none">
<path d="M0 289 l0 -289 263 0 262 0 0 289 0 289 -262 0 -263 0 0 -289z m319
233 c28 -38 28 -94 -2 -126 -13 -14 -23 -33 -23 -42 0 -32 29 -19 49 21 25 51
61 71 112 62 35 -7 38 -11 38 -41 0 -19 -10 -47 -24 -64 -21 -27 -32 -31 -81
-32 -50 -1 -57 -3 -57 -22 0 -18 6 -20 50 -18 44 3 54 0 81 -28 21 -21 32 -41
32 -63 0 -28 -6 -33 -42 -44 -36 -11 -46 -10 -69 6 -15 9 -34 33 -42 53 -18
41 -34 54 -50 38 -8 -8 -3 -23 18 -53 34 -49 32 -94 -6 -134 -29 -31 -32 -31
-71 8 -40 39 -41 71 -7 131 15 24 23 47 20 50 -17 17 -37 3 -57 -40 -27 -57
-75 -79 -126 -58 -34 15 -37 27 -16 78 19 45 44 59 111 59 51 0 53 0 42 22
-10 18 -19 21 -48 16 -46 -7 -80 7 -102 45 -25 42 -22 69 9 83 60 27 100 10
134 -57 22 -43 26 -46 43 -33 19 14 19 16 -8 56 -39 57 -34 101 18 143 29 24
47 20 74 -16z"/>
</g>
</svg>
