<?xml version="1.0" encoding="UTF-8"?>
<!DOCTYPE svg PUBLIC "-//W3C//DTD SVG 1.1//EN" "http://www.w3.org/Graphics/SVG/1.1/DTD/svg11.dtd">
<svg version="1.1" xmlns="http://www.w3.org/2000/svg" xmlns:xlink="http://www.w3.org/1999/xlink" x="0" y="0" width="160" height="160" viewBox="0, 0, 160, 160">
  <g id="Layer_1">
    <path d="M31.19,24.333 C30.237,25.38 29.57,27.571 29.57,29.38 C29.57,32.142 29.19,32.523 26.713,32.523 C22.809,32.523 19.57,36.237 19.57,40.714 C19.57,43.856 19.19,44.333 16.523,44.904 C11.475,45.856 9.57,48.713 9.475,55.285 C9.475,68.237 12.713,127.285 13.57,130.809 C15.475,137.761 13.285,137.475 80.047,137.475 C145.094,137.475 144.142,137.571 146.332,131.856 C147.285,129.19 150.618,70.713 150.523,56.237 C150.523,48.713 148.808,45.952 143.475,44.904 C140.808,44.333 140.523,43.856 140.523,40.618 C140.523,37.952 139.856,36.237 138.237,34.714 C135.951,32.523 135.285,32.523 107.189,32.523 L78.523,32.523 L78.523,29.475 C78.523,27.761 78.047,25.475 77.475,24.428 C76.523,22.618 75.189,22.523 54.618,22.523 C34.809,22.523 32.713,22.714 31.19,24.333 z M75.951,25.475 C76.904,26.523 77.57,28.428 77.38,29.666 L76.999,32.047 L54.237,32.333 L31.57,32.523 L31.57,29.285 C31.57,27.38 32.047,25.38 32.713,24.714 C33.57,23.856 39.761,23.475 54.047,23.475 C72.618,23.475 74.332,23.666 75.951,25.475 z M137.094,35.952 C137.856,36.999 138.523,39.38 138.523,41.19 L138.523,44.428 L82.904,44.523 C42.523,44.523 26.904,44.237 25.856,43.38 C24.904,42.618 24.523,42.618 24.523,43.38 C24.523,44.047 23.856,44.523 22.999,44.523 C21.951,44.523 21.57,43.475 21.57,41.19 C21.57,37.761 22.999,35.094 25.57,34.237 C26.332,33.856 51.475,33.761 81.38,33.856 C133.856,34.047 135.761,34.047 137.094,35.952 z M146.999,49.475 C148.713,51.38 148.618,53.19 146.713,91.094 C144.808,128.904 144.618,130.809 142.618,132.904 C140.428,134.999 140.428,134.999 80.047,134.999 C19.856,134.999 19.57,134.999 17.475,132.904 C15.475,130.904 15.285,128.713 13.38,91.094 C11.475,53.38 11.475,51.285 13.094,49.475 C14.809,47.571 17.094,47.475 80.047,47.475 C143.475,47.475 145.285,47.571 146.999,49.475 z" fill="#000000"/>
    <path d="M26.999,38.523 C27.38,39.094 27.856,39.475 28.047,39.475 C28.332,39.475 28.523,39.094 28.523,38.523 C28.523,37.952 28.047,37.475 27.475,37.475 C26.904,37.475 26.713,37.952 26.999,38.523 z" fill="#000000"/>
    <path d="M34.047,38.523 C34.332,39.094 34.809,39.475 35.094,39.475 C35.285,39.475 35.57,39.094 35.57,38.523 C35.57,37.952 34.999,37.475 34.428,37.475 C33.856,37.475 33.666,37.952 34.047,38.523 z" fill="#000000"/>
    <path d="M40.999,38.523 C41.38,39.094 41.856,39.475 42.047,39.475 C42.332,39.475 42.523,39.094 42.523,38.523 C42.523,37.952 42.047,37.475 41.475,37.475 C40.904,37.475 40.713,37.952 40.999,38.523 z" fill="#000000"/>
    <path d="M48.047,38.523 C48.332,39.094 48.809,39.475 49.094,39.475 C49.285,39.475 49.57,39.094 49.57,38.523 C49.57,37.952 48.999,37.475 48.428,37.475 C47.856,37.475 47.666,37.952 48.047,38.523 z" fill="#000000"/>
    <path d="M54.999,38.523 C55.38,39.094 55.856,39.475 56.047,39.475 C56.332,39.475 56.523,39.094 56.523,38.523 C56.523,37.952 56.047,37.475 55.475,37.475 C54.904,37.475 54.713,37.952 54.999,38.523 z" fill="#000000"/>
    <path d="M62.047,38.523 C62.332,39.094 62.809,39.475 63.094,39.475 C63.285,39.475 63.57,39.094 63.57,38.523 C63.57,37.952 62.999,37.475 62.428,37.475 C61.856,37.475 61.666,37.952 62.047,38.523 z" fill="#000000"/>
    <path d="M76.047,38.523 C76.332,39.094 76.809,39.475 77.094,39.475 C77.285,39.475 77.57,39.094 77.57,38.523 C77.57,37.952 76.999,37.475 76.428,37.475 C75.856,37.475 75.666,37.952 76.047,38.523 z" fill="#000000"/>
    <path d="M82.999,38.523 C83.38,39.094 83.856,39.475 84.047,39.475 C84.332,39.475 84.523,39.094 84.523,38.523 C84.523,37.952 84.047,37.475 83.475,37.475 C82.904,37.475 82.713,37.952 82.999,38.523 z" fill="#000000"/>
    <path d="M90.047,38.523 C90.332,39.094 90.809,39.475 91.094,39.475 C91.285,39.475 91.57,39.094 91.57,38.523 C91.57,37.952 90.999,37.475 90.428,37.475 C89.856,37.475 89.666,37.952 90.047,38.523 z" fill="#000000"/>
    <path d="M96.999,38.523 C97.38,39.094 97.856,39.475 98.047,39.475 C98.332,39.475 98.523,39.094 98.523,38.523 C98.523,37.952 98.047,37.475 97.475,37.475 C96.904,37.475 96.713,37.952 96.999,38.523 z" fill="#000000"/>
    <path d="M118.047,38.523 C118.332,39.094 118.808,39.475 119.094,39.475 C119.285,39.475 119.57,39.094 119.57,38.523 C119.57,37.952 118.999,37.475 118.428,37.475 C117.856,37.475 117.666,37.952 118.047,38.523 z" fill="#000000"/>
    <path d="M132.047,38.523 C132.332,39.094 132.808,39.475 133.094,39.475 C133.285,39.475 133.57,39.094 133.57,38.523 C133.57,37.952 132.999,37.475 132.428,37.475 C131.856,37.475 131.666,37.952 132.047,38.523 z" fill="#000000"/>
    <path d="M24.523,40.523 C24.523,41.094 24.999,41.475 25.57,41.475 C26.047,41.475 26.523,41.094 26.523,40.523 C26.523,39.952 26.047,39.475 25.57,39.475 C24.999,39.475 24.523,39.952 24.523,40.523 z" fill="#000000"/>
    <path d="M134.047,40.523 C133.666,41.094 133.856,41.475 134.428,41.475 C134.999,41.475 135.57,41.094 135.57,40.523 C135.57,39.952 135.285,39.475 135.094,39.475 C134.808,39.475 134.332,39.952 134.047,40.523 z" fill="#000000"/>
    <path d="M20.523,53.475 C20.523,54.047 21.19,54.523 22.047,54.523 C22.809,54.523 23.57,54.047 23.57,53.475 C23.57,52.999 22.809,52.523 22.047,52.523 C21.19,52.523 20.523,52.999 20.523,53.475 z" fill="#000000"/>
    <path d="M25.57,53.475 C25.57,54.047 26.237,54.523 26.999,54.523 C27.856,54.523 28.523,54.047 28.523,53.475 C28.523,52.999 27.856,52.523 26.999,52.523 C26.237,52.523 25.57,52.999 25.57,53.475 z" fill="#000000"/>
    <path d="M30.523,53.475 C30.523,54.047 31.19,54.523 32.047,54.523 C32.809,54.523 33.57,54.047 33.57,53.475 C33.57,52.999 32.809,52.523 32.047,52.523 C31.19,52.523 30.523,52.999 30.523,53.475 z" fill="#000000"/>
    <path d="M35.57,53.475 C35.57,54.047 36.237,54.523 36.999,54.523 C37.856,54.523 38.523,54.047 38.523,53.475 C38.523,52.999 37.856,52.523 36.999,52.523 C36.237,52.523 35.57,52.999 35.57,53.475 z" fill="#000000"/>
    <path d="M40.523,53.475 C40.523,54.047 41.19,54.523 42.047,54.523 C42.809,54.523 43.57,54.047 43.57,53.475 C43.57,52.999 42.809,52.523 42.047,52.523 C41.19,52.523 40.523,52.999 40.523,53.475 z" fill="#000000"/>
    <path d="M45.57,53.475 C45.57,54.047 46.237,54.523 46.999,54.523 C47.856,54.523 48.523,54.047 48.523,53.475 C48.523,52.999 47.856,52.523 46.999,52.523 C46.237,52.523 45.57,52.999 45.57,53.475 z" fill="#000000"/>
    <path d="M50.523,53.475 C50.523,54.047 51.19,54.523 52.047,54.523 C52.809,54.523 53.57,54.047 53.57,53.475 C53.57,52.999 52.809,52.523 52.047,52.523 C51.19,52.523 50.523,52.999 50.523,53.475 z" fill="#000000"/>
    <path d="M55.57,53.475 C55.57,54.047 56.237,54.523 56.999,54.523 C57.856,54.523 58.523,54.047 58.523,53.475 C58.523,52.999 57.856,52.523 56.999,52.523 C56.237,52.523 55.57,52.999 55.57,53.475 z" fill="#000000"/>
    <path d="M60.523,53.475 C60.523,54.047 61.189,54.523 62.047,54.523 C62.809,54.523 63.57,54.047 63.57,53.475 C63.57,52.999 62.809,52.523 62.047,52.523 C61.189,52.523 60.523,52.999 60.523,53.475 z" fill="#000000"/>
    <path d="M65.57,53.475 C65.57,54.047 66.237,54.523 66.999,54.523 C67.856,54.523 68.523,54.047 68.523,53.475 C68.523,52.999 67.856,52.523 66.999,52.523 C66.237,52.523 65.57,52.999 65.57,53.475 z" fill="#000000"/>
    <path d="M70.523,53.475 C70.523,54.047 71.189,54.523 72.047,54.523 C72.809,54.523 73.57,54.047 73.57,53.475 C73.57,52.999 72.809,52.523 72.047,52.523 C71.189,52.523 70.523,52.999 70.523,53.475 z" fill="#000000"/>
    <path d="M75.57,53.475 C75.57,54.047 76.237,54.523 76.999,54.523 C77.856,54.523 78.523,54.047 78.523,53.475 C78.523,52.999 77.856,52.523 76.999,52.523 C76.237,52.523 75.57,52.999 75.57,53.475 z" fill="#000000"/>
    <path d="M80.523,53.475 C80.523,54.047 81.189,54.523 82.047,54.523 C82.809,54.523 83.57,54.047 83.57,53.475 C83.57,52.999 82.809,52.523 82.047,52.523 C81.189,52.523 80.523,52.999 80.523,53.475 z" fill="#000000"/>
    <path d="M86.523,53.475 C86.523,54.047 86.999,54.523 87.57,54.523 C88.047,54.523 88.523,54.047 88.523,53.475 C88.523,52.999 88.047,52.523 87.57,52.523 C86.999,52.523 86.523,52.999 86.523,53.475 z" fill="#000000"/>
    <path d="M90.523,53.475 C90.523,54.047 91.189,54.523 92.047,54.523 C92.809,54.523 93.57,54.047 93.57,53.475 C93.57,52.999 92.809,52.523 92.047,52.523 C91.189,52.523 90.523,52.999 90.523,53.475 z" fill="#000000"/>
    <path d="M96.523,53.475 C96.523,54.047 96.999,54.523 97.57,54.523 C98.047,54.523 98.523,54.047 98.523,53.475 C98.523,52.999 98.047,52.523 97.57,52.523 C96.999,52.523 96.523,52.999 96.523,53.475 z" fill="#000000"/>
    <path d="M101.57,53.475 C101.57,54.047 101.951,54.523 102.523,54.523 C103.094,54.523 103.57,54.047 103.57,53.475 C103.57,52.999 103.094,52.523 102.523,52.523 C101.951,52.523 101.57,52.999 101.57,53.475 z" fill="#000000"/>
    <path d="M106.523,53.475 C106.523,54.047 106.999,54.523 107.57,54.523 C108.047,54.523 108.523,54.047 108.523,53.475 C108.523,52.999 108.047,52.523 107.57,52.523 C106.999,52.523 106.523,52.999 106.523,53.475 z" fill="#000000"/>
    <path d="M111.57,53.475 C111.57,54.047 111.951,54.523 112.523,54.523 C113.094,54.523 113.57,54.047 113.57,53.475 C113.57,52.999 113.094,52.523 112.523,52.523 C111.951,52.523 111.57,52.999 111.57,53.475 z" fill="#000000"/>
    <path d="M116.523,53.475 C116.523,54.047 116.999,54.523 117.57,54.523 C118.047,54.523 118.523,54.047 118.523,53.475 C118.523,52.999 118.047,52.523 117.57,52.523 C116.999,52.523 116.523,52.999 116.523,53.475 z" fill="#000000"/>
    <path d="M121.57,53.475 C121.57,54.047 121.951,54.523 122.523,54.523 C123.094,54.523 123.57,54.047 123.57,53.475 C123.57,52.999 123.094,52.523 122.523,52.523 C121.951,52.523 121.57,52.999 121.57,53.475 z" fill="#000000"/>
    <path d="M126.523,53.475 C126.523,54.047 126.999,54.523 127.57,54.523 C128.047,54.523 128.523,54.047 128.523,53.475 C128.523,52.999 128.047,52.523 127.57,52.523 C126.999,52.523 126.523,52.999 126.523,53.475 z" fill="#000000"/>
    <path d="M131.57,53.475 C131.57,54.047 131.951,54.523 132.523,54.523 C133.094,54.523 133.57,54.047 133.57,53.475 C133.57,52.999 133.094,52.523 132.523,52.523 C131.951,52.523 131.57,52.999 131.57,53.475 z" fill="#000000"/>
    <path d="M136.523,53.475 C136.523,54.047 136.999,54.523 137.57,54.523 C138.047,54.523 138.523,54.047 138.523,53.475 C138.523,52.999 138.047,52.523 137.57,52.523 C136.999,52.523 136.523,52.999 136.523,53.475 z" fill="#000000"/>
    <path d="M140.999,54.618 C140.047,56.142 141.38,57.094 142.618,55.856 C143.38,55.094 143.38,54.523 142.713,54.142 C142.142,53.761 141.38,53.952 140.999,54.618 z" fill="#000000"/>
    <path d="M16.523,55.475 C16.523,56.047 17.19,56.523 18.047,56.523 C18.809,56.523 19.57,56.047 19.57,55.475 C19.57,54.999 18.809,54.523 18.047,54.523 C17.19,54.523 16.523,54.999 16.523,55.475 z" fill="#000000"/>
    <path d="M96.713,60.523 C94.904,61.666 92.999,63.666 92.523,65.094 C91.951,66.523 91.094,67.38 90.618,67.094 C90.142,66.809 89.57,68.523 89.38,70.999 C89.189,73.475 89.285,75.475 89.666,75.475 C89.951,75.475 90.332,79.094 90.428,83.475 L90.618,91.475 L86.809,91.666 C76.999,92.047 71.38,92.618 64.237,93.856 C58.904,94.809 56.618,94.809 56.809,94.142 C56.999,93.475 58.332,92.999 59.666,92.999 C60.999,92.904 62.618,92.618 63.285,92.142 C63.951,91.761 65.951,91.475 67.761,91.38 C77.761,91.285 81.57,90.904 81.57,90.142 C81.57,89.666 83.189,89.475 85.285,89.666 L88.999,90.047 L88.904,83.952 C88.904,80.523 88.523,77.285 88.142,76.618 C87.666,76.047 87.475,73.571 87.666,71.285 L87.951,66.999 L78.047,66.713 C65.189,66.333 52.237,69.19 54.428,71.952 C54.999,72.618 55.761,75.094 56.142,77.475 C56.618,80.809 56.523,81.666 55.57,81.094 C54.904,80.618 54.618,79.475 54.809,78.428 C55.094,77.38 54.904,76.237 54.332,75.952 C53.856,75.571 53.57,74.713 53.856,73.952 C55.38,70.237 48.809,72.428 44.428,77.19 C39.856,82.047 39.475,83.761 39.57,97.285 C39.666,104.332 39.38,111.285 38.999,112.809 C38.618,114.428 38.713,115.571 39.38,115.475 C41.285,115.475 41.761,111.38 40.999,100.142 C40.332,89.094 40.809,85.856 41.856,94.618 C42.142,97.19 43.094,100.904 43.951,102.999 C44.904,105.38 45.57,109.761 45.57,114.618 C45.57,121.856 46.523,124.999 48.047,122.523 C48.332,121.952 49.856,121.475 51.38,121.475 C54.809,121.571 55.856,120.618 54.428,118.904 C53.19,117.38 53.666,110.523 54.999,110.332 C55.57,110.332 56.332,111.761 56.713,113.666 C57.761,119.38 59.094,122.999 60.142,122.999 C60.618,122.904 62.713,122.523 64.809,122.142 L68.523,121.285 L66.618,118.618 C64.047,114.904 63.189,110.618 64.523,107.475 C65.475,105.19 66.428,104.713 70.809,104.237 C78.047,103.38 83.666,101.571 82.904,100.428 C82.618,99.856 83.285,99.952 84.428,100.713 C85.57,101.38 86.713,103.19 87.094,104.713 C87.761,107.952 87.475,115.571 86.523,116.999 C86.142,117.571 85.951,118.713 86.047,119.475 C86.142,120.332 86.332,121.571 86.332,122.332 C86.428,123.19 87.285,123.475 88.523,122.999 C89.666,122.618 90.523,122.809 90.523,123.475 C90.523,124.047 90.999,124.523 91.57,124.523 C92.142,124.523 92.428,124.142 92.047,123.666 C91.761,123.094 92.713,122.428 94.142,122.047 L96.809,121.38 L94.713,119.475 C92.999,117.856 92.809,116.999 93.57,114.999 C95.189,110.809 97.475,106.713 98.713,105.952 C99.38,105.475 99.57,105.666 99.189,106.237 C98.809,106.904 98.999,107.475 99.57,107.666 C100.332,107.952 100.332,108.904 99.57,110.904 C97.57,116.142 98.142,117.094 102.999,117.285 C107.856,117.475 108.047,117.38 106.523,114.618 C105.951,113.475 105.951,111.571 106.523,109.666 C107.189,107.094 106.904,105.571 104.428,101.094 C101.094,94.713 100.809,93.285 103.285,93.761 C104.428,93.952 104.904,93.475 104.618,92.523 C104.428,91.666 104.237,90.142 104.332,88.999 C104.428,87.952 103.475,86.047 102.332,84.809 C99.856,82.142 100.618,80.428 103.285,82.809 C104.332,83.761 106.047,84.142 107.761,83.856 C109.666,83.475 110.713,83.761 111.094,84.904 C111.475,85.761 112.142,86.237 112.713,85.952 C113.285,85.571 113.094,84.809 112.428,83.952 C110.713,81.856 111.666,81.38 114.523,82.809 C117.189,84.142 117.951,86.999 115.57,86.999 C114.808,86.999 113.761,88.333 113.285,90.047 C110.047,101.475 109.666,103.666 110.523,106.523 C110.999,108.142 111.094,109.571 110.713,109.571 C110.332,109.571 109.38,109.952 108.713,110.428 C106.999,111.475 108.808,115.571 110.999,115.571 C114.142,115.475 115.666,112.428 114.999,107.38 C114.428,103.094 114.713,101.856 117.856,96.142 C120.618,90.999 121.094,89.571 119.951,89.094 C117.761,88.333 118.237,86.618 120.523,87.19 C124.142,88.142 123.094,84.237 116.428,72.523 C114.142,68.428 103.761,58.523 101.856,58.523 C100.809,58.523 98.523,59.475 96.713,60.523 z M101.57,74.428 C101.57,77.19 101.094,79.666 100.618,79.952 C99.761,80.523 98.618,70.809 99.475,69.952 C100.809,68.618 101.57,70.142 101.57,74.428 z M113.951,75.094 C114.237,75.952 114.047,76.333 113.475,76.047 C112.999,75.666 112.523,74.999 112.523,74.428 C112.523,72.999 113.285,73.38 113.951,75.094 z M110.999,75.475 C110.713,76.047 109.951,76.523 109.38,76.523 C108.808,76.523 108.713,76.047 108.999,75.475 C109.38,74.999 110.047,74.523 110.618,74.523 C111.189,74.523 111.38,74.999 110.999,75.475 z M57.285,87.952 C57.285,89.856 56.809,91.19 56.332,90.904 C55.189,90.237 55.285,84.523 56.523,84.523 C56.999,84.523 57.38,86.047 57.285,87.952 z M103.189,104.047 C103.951,106.142 102.809,107.19 101.285,105.666 C100.428,104.809 100.428,104.523 101.57,104.523 C102.809,104.523 102.809,104.332 101.57,103.475 C100.428,102.809 100.428,102.523 101.285,102.523 C102.047,102.523 102.809,103.19 103.189,104.047 z M60.809,114.142 C60.142,114.428 59.856,115.285 60.142,116.047 C60.523,116.904 60.237,117.475 59.761,117.475 C58.904,117.475 58.809,115.952 59.475,113.761 C59.475,113.666 60.047,113.571 60.809,113.571 C61.666,113.666 61.761,113.761 60.809,114.142 z" fill="#000000"/>
    <path d="M141.189,59.19 C140.428,59.952 141.285,61.475 142.618,61.475 C143.094,61.475 143.57,60.809 143.57,60.047 C143.57,58.523 142.332,58.047 141.189,59.19 z" fill="#000000"/>
    <path d="M16.523,60.523 C16.523,61.094 17.19,61.475 18.047,61.475 C18.809,61.475 19.57,61.094 19.57,60.523 C19.57,59.952 18.809,59.475 18.047,59.475 C17.19,59.475 16.523,59.952 16.523,60.523 z" fill="#000000"/>
    <path d="M140.523,64.999 C140.523,65.952 140.999,66.523 141.57,66.333 C142.142,66.142 142.713,65.571 142.713,64.999 C142.713,64.523 142.142,63.952 141.57,63.761 C140.999,63.475 140.523,64.142 140.523,64.999 z" fill="#000000"/>
    <path d="M16.523,65.475 C16.523,66.047 17.19,66.523 18.047,66.523 C18.809,66.523 19.57,66.047 19.57,65.475 C19.57,64.999 18.809,64.523 18.047,64.523 C17.19,64.523 16.523,64.999 16.523,65.475 z" fill="#000000"/>
    <path d="M140.523,70.047 C140.523,70.904 140.999,71.571 141.57,71.285 C142.142,71.094 142.713,70.523 142.713,70.047 C142.713,69.475 142.142,68.904 141.57,68.713 C140.999,68.523 140.523,69.094 140.523,70.047 z" fill="#000000"/>
    <path d="M17.57,70.523 C17.57,71.094 17.951,71.475 18.523,71.475 C19.094,71.475 19.57,71.094 19.57,70.523 C19.57,69.952 19.094,69.475 18.523,69.475 C17.951,69.475 17.57,69.952 17.57,70.523 z" fill="#000000"/>
    <path d="M140.523,74.999 C140.523,75.856 140.999,76.523 141.57,76.523 C142.047,76.523 142.523,75.856 142.523,74.999 C142.523,74.237 142.047,73.475 141.57,73.475 C140.999,73.475 140.523,74.237 140.523,74.999 z" fill="#000000"/>
    <path d="M17.57,75.475 C17.57,76.047 17.951,76.523 18.523,76.523 C19.094,76.523 19.57,76.047 19.57,75.475 C19.57,74.999 19.094,74.523 18.523,74.523 C17.951,74.523 17.57,74.999 17.57,75.475 z" fill="#000000"/>
    <path d="M140.237,79.19 C139.38,79.952 140.332,81.475 141.57,81.475 C142.142,81.475 142.523,80.809 142.523,80.047 C142.523,78.523 141.38,78.047 140.237,79.19 z" fill="#000000"/>
    <path d="M17.761,80.618 C17.951,81.19 18.523,81.666 18.999,81.666 C19.57,81.666 20.142,81.19 20.332,80.618 C20.523,80.047 19.951,79.475 18.999,79.475 C18.142,79.475 17.475,80.047 17.761,80.618 z" fill="#000000"/>
    <path d="M139.57,84.999 C139.57,85.952 140.047,86.523 140.618,86.333 C141.189,86.142 141.666,85.571 141.666,84.999 C141.666,84.523 141.189,83.952 140.618,83.761 C140.047,83.475 139.57,84.142 139.57,84.999 z" fill="#000000"/>
    <path d="M18.047,85.475 C17.38,86.523 18.999,87.761 19.856,86.809 C20.809,85.856 20.618,84.523 19.57,84.523 C19.094,84.523 18.428,84.904 18.047,85.475 z" fill="#000000"/>
    <path d="M139.57,90.047 C139.57,90.904 140.047,91.571 140.618,91.285 C141.189,91.094 141.666,90.523 141.666,90.047 C141.666,89.475 141.189,88.904 140.618,88.713 C140.047,88.523 139.57,89.094 139.57,90.047 z" fill="#000000"/>
    <path d="M18.523,90.523 C18.523,91.094 18.999,91.475 19.57,91.475 C20.047,91.475 20.523,91.094 20.523,90.523 C20.523,89.952 20.047,89.475 19.57,89.475 C18.999,89.475 18.523,89.952 18.523,90.523 z" fill="#000000"/>
    <path d="M143.761,92.523 C143.761,94.428 143.951,95.19 144.237,94.237 C144.428,93.285 144.428,91.761 144.237,90.809 C143.951,89.856 143.761,90.618 143.761,92.523 z" fill="#000000"/>
    <path d="M139.189,94.142 C138.427,94.999 139.285,96.523 140.618,96.523 C141.094,96.523 141.57,95.856 141.57,94.999 C141.57,93.475 140.332,92.999 139.189,94.142 z" fill="#000000"/>
    <path d="M18.713,95.571 C18.904,96.142 19.475,96.713 20.047,96.713 C20.523,96.713 21.094,96.142 21.285,95.571 C21.57,94.999 20.904,94.523 20.047,94.523 C19.094,94.523 18.523,94.999 18.713,95.571 z" fill="#000000"/>
    <path d="M139.189,99.19 C138.047,100.332 138.523,101.475 140.047,101.475 C140.808,101.475 141.57,101.094 141.57,100.618 C141.57,99.285 139.951,98.428 139.189,99.19 z" fill="#000000"/>
    <path d="M18.713,100.618 C18.904,101.19 19.475,101.666 20.047,101.666 C20.523,101.666 21.094,101.19 21.285,100.618 C21.57,100.047 20.904,99.475 20.047,99.475 C19.094,99.475 18.523,100.047 18.713,100.618 z" fill="#000000"/>
    <path d="M138.523,104.999 C138.523,105.952 138.999,106.523 139.57,106.332 C140.142,106.142 140.713,105.571 140.713,104.999 C140.713,104.523 140.142,103.952 139.57,103.761 C138.999,103.475 138.523,104.142 138.523,104.999 z" fill="#000000"/>
    <path d="M19.094,105.475 C18.428,106.523 19.951,107.761 20.904,106.809 C21.856,105.856 21.666,104.523 20.618,104.523 C20.047,104.523 19.38,104.904 19.094,105.475 z" fill="#000000"/>
    <path d="M16.713,108.999 C16.713,110.713 16.999,111.19 17.19,110.237 C17.475,109.285 17.475,107.952 17.19,107.285 C16.904,106.618 16.713,107.38 16.713,108.999 z" fill="#000000"/>
    <path d="M138.523,110.047 C138.523,110.809 138.999,111.475 139.57,111.475 C140.047,111.475 140.523,110.809 140.523,110.047 C140.523,109.19 140.047,108.523 139.57,108.523 C138.999,108.523 138.523,109.19 138.523,110.047 z" fill="#000000"/>
    <path d="M142.808,112.047 C142.808,114.237 142.999,114.999 143.189,113.761 C143.475,112.523 143.475,110.713 143.189,109.761 C142.999,108.809 142.808,109.856 142.808,112.047 z" fill="#000000"/>
    <path d="M19.57,110.428 C19.57,110.999 19.951,111.666 20.523,112.047 C21.094,112.332 21.57,111.952 21.57,111.094 C21.57,110.237 21.094,109.475 20.523,109.475 C19.951,109.475 19.57,109.952 19.57,110.428 z" fill="#000000"/>
    <path d="M138.142,114.332 C137.761,114.904 137.951,115.666 138.618,116.047 C140.142,116.999 141.094,115.666 139.856,114.428 C139.094,113.666 138.523,113.666 138.142,114.332 z" fill="#000000"/>
    <path d="M19.761,115.571 C19.951,116.142 20.523,116.713 20.999,116.713 C21.57,116.713 22.142,116.142 22.332,115.571 C22.523,114.999 21.951,114.523 20.999,114.523 C20.142,114.523 19.475,114.999 19.761,115.571 z" fill="#000000"/>
    <path d="M138.142,119.19 C136.999,120.332 137.475,121.475 138.999,121.475 C139.856,121.475 140.523,121.094 140.523,120.618 C140.523,119.285 138.999,118.428 138.142,119.19 z" fill="#000000"/>
    <path d="M20.047,120.428 C19.38,121.571 20.999,122.713 21.856,121.856 C22.809,120.904 22.618,119.475 21.57,119.475 C21.094,119.475 20.428,119.952 20.047,120.428 z" fill="#000000"/>
    <path d="M137.57,124.999 C137.57,125.856 137.951,126.523 138.523,126.523 C139.094,126.523 139.57,125.856 139.57,124.999 C139.57,124.237 139.094,123.475 138.523,123.475 C137.951,123.475 137.57,124.237 137.57,124.999 z" fill="#000000"/>
    <path d="M17.761,126.999 C17.761,128.713 17.951,129.19 18.237,128.237 C18.428,127.285 18.428,125.952 18.142,125.285 C17.951,124.618 17.666,125.38 17.761,126.999 z" fill="#000000"/>
    <path d="M20.523,126.047 C20.523,126.809 20.999,127.475 21.57,127.475 C22.047,127.475 22.523,126.809 22.523,126.047 C22.523,125.19 22.047,124.523 21.57,124.523 C20.999,124.523 20.523,125.19 20.523,126.047 z" fill="#000000"/>
    <path d="M23.761,128.618 C23.951,129.19 24.523,129.666 24.999,129.666 C25.57,129.666 26.142,129.19 26.332,128.618 C26.523,128.047 25.951,127.475 24.999,127.475 C24.142,127.475 23.475,128.047 23.761,128.618 z" fill="#000000"/>
    <path d="M28.713,128.618 C28.904,129.19 29.475,129.666 30.047,129.666 C30.523,129.666 31.094,129.19 31.285,128.618 C31.57,128.047 30.904,127.475 30.047,127.475 C29.094,127.475 28.523,128.047 28.713,128.618 z" fill="#000000"/>
    <path d="M33.761,128.618 C33.951,129.19 34.523,129.666 34.999,129.666 C35.57,129.666 36.142,129.19 36.332,128.618 C36.523,128.047 35.951,127.475 34.999,127.475 C34.142,127.475 33.475,128.047 33.761,128.618 z" fill="#000000"/>
    <path d="M38.713,128.618 C38.904,129.19 39.475,129.666 40.047,129.666 C40.523,129.666 41.094,129.19 41.285,128.618 C41.57,128.047 40.904,127.475 40.047,127.475 C39.094,127.475 38.523,128.047 38.713,128.618 z" fill="#000000"/>
    <path d="M44.047,128.428 C43.38,129.571 44.999,130.713 45.856,129.856 C46.809,128.904 46.618,127.475 45.57,127.475 C45.094,127.475 44.428,127.952 44.047,128.428 z" fill="#000000"/>
    <path d="M49.094,128.428 C48.428,129.571 49.951,130.713 50.904,129.856 C51.856,128.904 51.666,127.475 50.618,127.475 C50.047,127.475 49.38,127.952 49.094,128.428 z" fill="#000000"/>
    <path d="M53.761,128.618 C53.951,129.19 54.523,129.666 54.999,129.666 C55.57,129.666 56.142,129.19 56.332,128.618 C56.523,128.047 55.951,127.475 54.999,127.475 C54.142,127.475 53.475,128.047 53.761,128.618 z" fill="#000000"/>
    <path d="M59.094,128.428 C58.428,129.571 59.951,130.713 60.904,129.856 C61.856,128.904 61.666,127.475 60.618,127.475 C60.047,127.475 59.38,127.952 59.094,128.428 z" fill="#000000"/>
    <path d="M64.047,128.428 C63.38,129.571 64.999,130.713 65.856,129.856 C66.809,128.904 66.618,127.475 65.57,127.475 C65.094,127.475 64.428,127.952 64.047,128.428 z" fill="#000000"/>
    <path d="M69.094,128.428 C68.428,129.571 69.951,130.713 70.904,129.856 C71.856,128.904 71.666,127.475 70.618,127.475 C70.047,127.475 69.38,127.952 69.094,128.428 z" fill="#000000"/>
    <path d="M74.047,128.428 C73.38,129.571 74.999,130.713 75.856,129.856 C76.809,128.904 76.618,127.475 75.57,127.475 C75.094,127.475 74.428,127.952 74.047,128.428 z" fill="#000000"/>
    <path d="M79.094,128.428 C78.428,129.571 79.951,130.713 80.904,129.856 C81.856,128.904 81.666,127.475 80.618,127.475 C80.047,127.475 79.38,127.952 79.094,128.428 z" fill="#000000"/>
    <path d="M84.047,128.428 C83.38,129.571 84.999,130.713 85.856,129.856 C86.809,128.904 86.618,127.475 85.57,127.475 C85.094,127.475 84.428,127.952 84.047,128.428 z" fill="#000000"/>
    <path d="M89.094,128.428 C88.428,129.571 89.951,130.713 90.904,129.856 C91.856,128.904 91.666,127.475 90.618,127.475 C90.047,127.475 89.38,127.952 89.094,128.428 z" fill="#000000"/>
    <path d="M94.523,129.094 C94.523,129.952 94.999,130.332 95.57,130.047 C96.047,129.666 96.523,128.999 96.523,128.428 C96.523,127.952 96.047,127.475 95.57,127.475 C94.999,127.475 94.523,128.237 94.523,129.094 z" fill="#000000"/>
    <path d="M99.094,128.428 C98.428,129.571 99.951,130.713 100.904,129.856 C101.856,128.904 101.666,127.475 100.618,127.475 C100.047,127.475 99.38,127.952 99.094,128.428 z" fill="#000000"/>
    <path d="M104.523,128.999 C104.523,129.856 104.999,130.523 105.57,130.523 C106.047,130.523 106.523,129.856 106.523,128.999 C106.523,128.237 106.047,127.475 105.57,127.475 C104.999,127.475 104.523,128.237 104.523,128.999 z" fill="#000000"/>
    <path d="M109.57,129.094 C109.57,129.952 109.951,130.332 110.523,130.047 C111.094,129.666 111.57,128.999 111.57,128.428 C111.57,127.952 111.094,127.475 110.523,127.475 C109.951,127.475 109.57,128.237 109.57,129.094 z" fill="#000000"/>
    <path d="M114.523,128.999 C114.523,129.856 114.999,130.523 115.57,130.523 C116.047,130.523 116.523,129.856 116.523,128.999 C116.523,128.237 116.047,127.475 115.57,127.475 C114.999,127.475 114.523,128.237 114.523,128.999 z" fill="#000000"/>
    <path d="M119.57,128.999 C119.57,129.856 119.951,130.523 120.523,130.523 C121.094,130.523 121.57,129.856 121.57,128.999 C121.57,128.237 121.094,127.475 120.523,127.475 C119.951,127.475 119.57,128.237 119.57,128.999 z" fill="#000000"/>
    <path d="M124.523,128.999 C124.523,129.856 124.999,130.523 125.57,130.523 C126.047,130.523 126.523,129.856 126.523,128.999 C126.523,128.237 126.047,127.475 125.57,127.475 C124.999,127.475 124.523,128.237 124.523,128.999 z" fill="#000000"/>
    <path d="M129.57,128.999 C129.57,129.856 129.951,130.523 130.523,130.523 C131.094,130.523 131.57,129.856 131.57,128.999 C131.57,128.237 131.094,127.475 130.523,127.475 C129.951,127.475 129.57,128.237 129.57,128.999 z" fill="#000000"/>
    <path d="M134.523,129.094 C134.523,129.952 134.999,130.332 135.57,130.047 C136.047,129.666 136.523,128.999 136.523,128.428 C136.523,127.952 136.047,127.475 135.57,127.475 C134.999,127.475 134.523,128.237 134.523,129.094 z" fill="#000000"/>
    <path d="M141.57,129.094 C141.666,130.237 141.856,130.523 142.237,129.666 C142.523,128.999 142.428,128.142 142.142,127.761 C141.761,127.475 141.57,128.047 141.57,129.094 z" fill="#000000"/>
  </g>
</svg>
