<?xml version="1.0" encoding="UTF-8"?>
<!DOCTYPE svg PUBLIC "-//W3C//DTD SVG 1.1//EN" "http://www.w3.org/Graphics/SVG/1.1/DTD/svg11.dtd">
<svg version="1.1" xmlns="http://www.w3.org/2000/svg" xmlns:xlink="http://www.w3.org/1999/xlink" x="0" y="0" width="200" height="200" viewBox="0, 0, 200, 200">
  <g id="Layer_1">
    <path d="M13.548,100.024 L13.548,186.5 L100.024,186.5 L186.5,186.5 L186.5,100.024 L186.5,13.453 L100.024,13.453 L13.548,13.453 L13.548,100.024 z M82.5,98.976 L82.5,164.5 L58.5,164.5 L34.5,164.5 L34.5,98.976 L34.5,33.453 L58.5,33.453 L82.5,33.453 L82.5,98.976 z M166.5,60.976 L166.5,88.5 L134.976,88.5 L103.548,88.5 L103.548,60.976 L103.548,33.453 L134.976,33.453 L166.5,33.453 L166.5,60.976 z M166.5,137.452 L166.5,165.452 L134.976,165.452 L103.548,165.452 L103.548,137.452 L103.548,109.452 L134.976,109.452 L166.5,109.452 L166.5,137.452 z" fill="#000000"/>
  </g>
</svg>
